# xmcd
#
# Track frame offsets:
#	150
#	22001
#	41461
#	61917
#	85119
#	108858
#	127070
#	146373
#	166034
#	186133
#	205995
#	222941
#	242563
#	262433
#	279615
#	296859
#
# Disc length: 4227 seconds
#
# Revision: 3
# Processed by: cddbd v1.5.1PL0 Copyright (c) Steve Scherf et al.
# Submitted via: audiograbber 1.83.01
#
DISCID=f3108110
DTITLE=Tony Braxton - Love Ballads
DYEAR=2002
DGENRE=
TTITLE0=SPANISH GUITAR
TTITLE1=I DON'T WANT TO
TTITLE2=UN-BREAK MY HEART
TTITLE3=I LOVE ME SOME HIM
TTITLE4=In THE LATE OF NIGHT
TTITLE5=NEVER JUST FOR A RING
TTITLE6=I'M STILL BREATHING
TTITLE7=HOW COULD AN ANGEL BREACK MY HEART
TTITLE8=WHY SHOULD I CARE
TTITLE9=LET IT FLOW
TTITLE10=COME ON OVER HERE
TTITLE11=THERE'S NO ME WHITHOUT YOU
TTITLE12=RAIRY TALE
TTITLE13=SPEAKING IN TONGUEL
TTITLE14=THE ART OF LOVE
TTITLE15=FIND ME A MAN
EXTD=Special Eddition
EXTT0=
EXTT1=
EXTT2=
EXTT3=
EXTT4=
EXTT5=
EXTT6=
EXTT7=
EXTT8=
EXTT9=
EXTT10=
EXTT11=
EXTT12=
EXTT13=
EXTT14=
EXTT15=
PLAYORDER=
